<mxfile host="app.diagrams.net" modified="2024-04-03T18:24:08.324Z" agent="Mozilla/5.0 (Windows NT 10.0; Win64; x64) AppleWebKit/537.36 (KHTML, like Gecko) Chrome/123.0.0.0 Safari/537.36 Edg/123.0.0.0" etag="-VvRDOT9HvoE99ir2MJn" version="24.2.2" type="device">
  <diagram name="Page-1" id="7X0_Hisv3dq3dnoPnIE_">
    <mxGraphModel dx="1227" dy="915" grid="0" gridSize="10" guides="1" tooltips="1" connect="1" arrows="1" fold="1" page="0" pageScale="1" pageWidth="827" pageHeight="1169" math="0" shadow="0">
      <root>
        <mxCell id="0" />
        <mxCell id="1" parent="0" />
        <mxCell id="IVXjtGJ43Ms6Sea_oPDE-1" value="" style="ellipse;whiteSpace=wrap;html=1;aspect=fixed;" parent="1" vertex="1">
          <mxGeometry x="743" y="510" width="43" height="43" as="geometry" />
        </mxCell>
        <mxCell id="5zz0w7R5cY40Yzn6jE3v-1" value="" style="ellipse;whiteSpace=wrap;html=1;aspect=fixed;" parent="1" vertex="1">
          <mxGeometry x="959" y="603" width="43" height="43" as="geometry" />
        </mxCell>
        <mxCell id="5zz0w7R5cY40Yzn6jE3v-2" value="" style="ellipse;whiteSpace=wrap;html=1;aspect=fixed;" parent="1" vertex="1">
          <mxGeometry x="1139" y="534" width="43" height="43" as="geometry" />
        </mxCell>
        <mxCell id="5zz0w7R5cY40Yzn6jE3v-3" value="" style="ellipse;whiteSpace=wrap;html=1;aspect=fixed;" parent="1" vertex="1">
          <mxGeometry x="493" y="553" width="43" height="43" as="geometry" />
        </mxCell>
        <mxCell id="5zz0w7R5cY40Yzn6jE3v-4" value="" style="endArrow=none;html=1;rounded=0;" parent="1" edge="1">
          <mxGeometry width="50" height="50" relative="1" as="geometry">
            <mxPoint x="445" y="29" as="sourcePoint" />
            <mxPoint x="495" y="-21" as="targetPoint" />
            <Array as="points">
              <mxPoint x="211" y="96" />
            </Array>
          </mxGeometry>
        </mxCell>
        <mxCell id="5zz0w7R5cY40Yzn6jE3v-5" value="" style="endArrow=none;html=1;rounded=0;exitX=1;exitY=0;exitDx=0;exitDy=0;" parent="1" source="5zz0w7R5cY40Yzn6jE3v-3" edge="1">
          <mxGeometry width="50" height="50" relative="1" as="geometry">
            <mxPoint x="859" y="716" as="sourcePoint" />
            <mxPoint x="741" y="539" as="targetPoint" />
          </mxGeometry>
        </mxCell>
        <mxCell id="5zz0w7R5cY40Yzn6jE3v-6" value="" style="endArrow=none;html=1;rounded=0;exitX=0;exitY=0;exitDx=0;exitDy=0;entryX=1;entryY=1;entryDx=0;entryDy=0;" parent="1" source="5zz0w7R5cY40Yzn6jE3v-1" target="IVXjtGJ43Ms6Sea_oPDE-1" edge="1">
          <mxGeometry width="50" height="50" relative="1" as="geometry">
            <mxPoint x="697" y="732" as="sourcePoint" />
            <mxPoint x="818" y="650" as="targetPoint" />
          </mxGeometry>
        </mxCell>
        <mxCell id="5zz0w7R5cY40Yzn6jE3v-7" value="" style="endArrow=none;html=1;rounded=0;exitX=1;exitY=0.698;exitDx=0;exitDy=0;exitPerimeter=0;" parent="1" source="IVXjtGJ43Ms6Sea_oPDE-1" target="5zz0w7R5cY40Yzn6jE3v-2" edge="1">
          <mxGeometry width="50" height="50" relative="1" as="geometry">
            <mxPoint x="639" y="822" as="sourcePoint" />
            <mxPoint x="760" y="740" as="targetPoint" />
          </mxGeometry>
        </mxCell>
        <mxCell id="5zz0w7R5cY40Yzn6jE3v-8" value="A" style="text;html=1;align=center;verticalAlign=middle;resizable=0;points=[];autosize=1;strokeColor=none;fillColor=none;" parent="1" vertex="1">
          <mxGeometry x="752" y="518.5" width="25" height="26" as="geometry" />
        </mxCell>
        <mxCell id="5zz0w7R5cY40Yzn6jE3v-9" value="B" style="text;html=1;align=center;verticalAlign=middle;resizable=0;points=[];autosize=1;strokeColor=none;fillColor=none;" parent="1" vertex="1">
          <mxGeometry x="501.5" y="561.5" width="26" height="26" as="geometry" />
        </mxCell>
        <mxCell id="5zz0w7R5cY40Yzn6jE3v-10" value="C" style="text;html=1;align=center;verticalAlign=middle;resizable=0;points=[];autosize=1;strokeColor=none;fillColor=none;" parent="1" vertex="1">
          <mxGeometry x="967" y="611.5" width="27" height="26" as="geometry" />
        </mxCell>
        <mxCell id="5zz0w7R5cY40Yzn6jE3v-11" value="L" style="text;html=1;align=center;verticalAlign=middle;resizable=0;points=[];autosize=1;strokeColor=none;fillColor=none;" parent="1" vertex="1">
          <mxGeometry x="1147" y="544" width="25" height="26" as="geometry" />
        </mxCell>
        <mxCell id="5zz0w7R5cY40Yzn6jE3v-12" value="756" style="text;html=1;align=center;verticalAlign=middle;resizable=0;points=[];autosize=1;strokeColor=none;fillColor=none;" parent="1" vertex="1">
          <mxGeometry x="534" y="567" width="39" height="26" as="geometry" />
        </mxCell>
        <mxCell id="5zz0w7R5cY40Yzn6jE3v-13" value="792" style="text;html=1;align=center;verticalAlign=middle;resizable=0;points=[];autosize=1;strokeColor=none;fillColor=none;" parent="1" vertex="1">
          <mxGeometry x="1002" y="606" width="39" height="26" as="geometry" />
        </mxCell>
        <mxCell id="5zz0w7R5cY40Yzn6jE3v-14" value="1236&lt;div&gt;&lt;br&gt;&lt;/div&gt;" style="text;html=1;align=center;verticalAlign=middle;resizable=0;points=[];autosize=1;strokeColor=none;fillColor=none;" parent="1" vertex="1">
          <mxGeometry x="1183" y="550" width="46" height="41" as="geometry" />
        </mxCell>
        <mxCell id="5zz0w7R5cY40Yzn6jE3v-24" value="" style="ellipse;whiteSpace=wrap;html=1;aspect=fixed;" parent="1" vertex="1">
          <mxGeometry x="411" y="671" width="43" height="43" as="geometry" />
        </mxCell>
        <mxCell id="5zz0w7R5cY40Yzn6jE3v-25" value="" style="ellipse;whiteSpace=wrap;html=1;aspect=fixed;" parent="1" vertex="1">
          <mxGeometry x="598" y="740.5" width="43" height="43" as="geometry" />
        </mxCell>
        <mxCell id="5zz0w7R5cY40Yzn6jE3v-26" value="" style="ellipse;whiteSpace=wrap;html=1;aspect=fixed;" parent="1" vertex="1">
          <mxGeometry x="251" y="671" width="43" height="43" as="geometry" />
        </mxCell>
        <mxCell id="5zz0w7R5cY40Yzn6jE3v-27" value="A" style="text;html=1;align=center;verticalAlign=middle;resizable=0;points=[];autosize=1;strokeColor=none;fillColor=none;" parent="1" vertex="1">
          <mxGeometry x="260.5" y="679.5" width="25" height="26" as="geometry" />
        </mxCell>
        <mxCell id="5zz0w7R5cY40Yzn6jE3v-28" value="C" style="text;html=1;align=center;verticalAlign=middle;resizable=0;points=[];autosize=1;strokeColor=none;fillColor=none;" parent="1" vertex="1">
          <mxGeometry x="419" y="679.5" width="27" height="26" as="geometry" />
        </mxCell>
        <mxCell id="5zz0w7R5cY40Yzn6jE3v-29" value="J" style="text;html=1;align=center;verticalAlign=middle;resizable=0;points=[];autosize=1;strokeColor=none;fillColor=none;" parent="1" vertex="1">
          <mxGeometry x="608" y="751.5" width="24" height="26" as="geometry" />
        </mxCell>
        <mxCell id="5zz0w7R5cY40Yzn6jE3v-30" value="1282" style="text;html=1;align=center;verticalAlign=middle;resizable=0;points=[];autosize=1;strokeColor=none;fillColor=none;" parent="1" vertex="1">
          <mxGeometry x="285.5" y="708.5" width="46" height="26" as="geometry" />
        </mxCell>
        <mxCell id="5zz0w7R5cY40Yzn6jE3v-31" value="957" style="text;html=1;align=center;verticalAlign=middle;resizable=0;points=[];autosize=1;strokeColor=none;fillColor=none;" parent="1" vertex="1">
          <mxGeometry x="441" y="702" width="39" height="26" as="geometry" />
        </mxCell>
        <mxCell id="5zz0w7R5cY40Yzn6jE3v-32" value="&lt;div&gt;794&lt;/div&gt;" style="text;html=1;align=center;verticalAlign=middle;resizable=0;points=[];autosize=1;strokeColor=none;fillColor=none;" parent="1" vertex="1">
          <mxGeometry x="641" y="749" width="39" height="26" as="geometry" />
        </mxCell>
        <mxCell id="5zz0w7R5cY40Yzn6jE3v-33" value="" style="endArrow=none;html=1;rounded=0;exitX=0.349;exitY=0.953;exitDx=0;exitDy=0;entryX=0.5;entryY=0;entryDx=0;entryDy=0;exitPerimeter=0;" parent="1" source="5zz0w7R5cY40Yzn6jE3v-3" target="5zz0w7R5cY40Yzn6jE3v-24" edge="1">
          <mxGeometry width="50" height="50" relative="1" as="geometry">
            <mxPoint x="540" y="569" as="sourcePoint" />
            <mxPoint x="661" y="487" as="targetPoint" />
          </mxGeometry>
        </mxCell>
        <mxCell id="5zz0w7R5cY40Yzn6jE3v-34" value="" style="endArrow=none;html=1;rounded=0;exitX=1;exitY=1;exitDx=0;exitDy=0;entryX=0;entryY=0;entryDx=0;entryDy=0;" parent="1" source="5zz0w7R5cY40Yzn6jE3v-3" target="5zz0w7R5cY40Yzn6jE3v-25" edge="1">
          <mxGeometry width="50" height="50" relative="1" as="geometry">
            <mxPoint x="550" y="579" as="sourcePoint" />
            <mxPoint x="671" y="497" as="targetPoint" />
          </mxGeometry>
        </mxCell>
        <mxCell id="5zz0w7R5cY40Yzn6jE3v-35" value="" style="endArrow=none;html=1;rounded=0;exitX=1;exitY=0;exitDx=0;exitDy=0;entryX=-0.023;entryY=0.814;entryDx=0;entryDy=0;entryPerimeter=0;" parent="1" source="5zz0w7R5cY40Yzn6jE3v-26" target="5zz0w7R5cY40Yzn6jE3v-3" edge="1">
          <mxGeometry width="50" height="50" relative="1" as="geometry">
            <mxPoint x="560" y="589" as="sourcePoint" />
            <mxPoint x="681" y="507" as="targetPoint" />
          </mxGeometry>
        </mxCell>
        <mxCell id="5zz0w7R5cY40Yzn6jE3v-36" value="" style="ellipse;whiteSpace=wrap;html=1;aspect=fixed;" parent="1" vertex="1">
          <mxGeometry x="988" y="700" width="43" height="43" as="geometry" />
        </mxCell>
        <mxCell id="5zz0w7R5cY40Yzn6jE3v-37" value="" style="ellipse;whiteSpace=wrap;html=1;aspect=fixed;" parent="1" vertex="1">
          <mxGeometry x="1109" y="697.5" width="43" height="43" as="geometry" />
        </mxCell>
        <mxCell id="5zz0w7R5cY40Yzn6jE3v-38" value="" style="ellipse;whiteSpace=wrap;html=1;aspect=fixed;" parent="1" vertex="1">
          <mxGeometry x="828" y="700" width="43" height="43" as="geometry" />
        </mxCell>
        <mxCell id="5zz0w7R5cY40Yzn6jE3v-39" value="A" style="text;html=1;align=center;verticalAlign=middle;resizable=0;points=[];autosize=1;strokeColor=none;fillColor=none;" parent="1" vertex="1">
          <mxGeometry x="837.5" y="708.5" width="25" height="26" as="geometry" />
        </mxCell>
        <mxCell id="5zz0w7R5cY40Yzn6jE3v-40" value="B" style="text;html=1;align=center;verticalAlign=middle;resizable=0;points=[];autosize=1;strokeColor=none;fillColor=none;" parent="1" vertex="1">
          <mxGeometry x="997" y="708.5" width="26" height="26" as="geometry" />
        </mxCell>
        <mxCell id="5zz0w7R5cY40Yzn6jE3v-41" value="K" style="text;html=1;align=center;verticalAlign=middle;resizable=0;points=[];autosize=1;strokeColor=none;fillColor=none;" parent="1" vertex="1">
          <mxGeometry x="1118" y="708.5" width="26" height="26" as="geometry" />
        </mxCell>
        <mxCell id="5zz0w7R5cY40Yzn6jE3v-42" value="792" style="text;html=1;align=center;verticalAlign=middle;resizable=0;points=[];autosize=1;strokeColor=none;fillColor=none;" parent="1" vertex="1">
          <mxGeometry x="860" y="729" width="39" height="26" as="geometry" />
        </mxCell>
        <mxCell id="5zz0w7R5cY40Yzn6jE3v-43" value="1125" style="text;html=1;align=center;verticalAlign=middle;resizable=0;points=[];autosize=1;strokeColor=none;fillColor=none;" parent="1" vertex="1">
          <mxGeometry x="1015" y="731" width="45" height="26" as="geometry" />
        </mxCell>
        <mxCell id="5zz0w7R5cY40Yzn6jE3v-44" value="&lt;div&gt;939&lt;/div&gt;" style="text;html=1;align=center;verticalAlign=middle;resizable=0;points=[];autosize=1;strokeColor=none;fillColor=none;" parent="1" vertex="1">
          <mxGeometry x="1145" y="726.5" width="39" height="26" as="geometry" />
        </mxCell>
        <mxCell id="5zz0w7R5cY40Yzn6jE3v-45" value="" style="endArrow=none;html=1;rounded=0;entryX=1;entryY=0;entryDx=0;entryDy=0;" parent="1" target="5zz0w7R5cY40Yzn6jE3v-38" edge="1">
          <mxGeometry width="50" height="50" relative="1" as="geometry">
            <mxPoint x="958" y="632" as="sourcePoint" />
            <mxPoint x="890" y="714" as="targetPoint" />
          </mxGeometry>
        </mxCell>
        <mxCell id="5zz0w7R5cY40Yzn6jE3v-46" value="" style="endArrow=none;html=1;rounded=0;entryX=0.5;entryY=1;entryDx=0;entryDy=0;exitX=0.302;exitY=0;exitDx=0;exitDy=0;exitPerimeter=0;" parent="1" source="5zz0w7R5cY40Yzn6jE3v-36" target="5zz0w7R5cY40Yzn6jE3v-1" edge="1">
          <mxGeometry width="50" height="50" relative="1" as="geometry">
            <mxPoint x="1004" y="696" as="sourcePoint" />
            <mxPoint x="989" y="666" as="targetPoint" />
          </mxGeometry>
        </mxCell>
        <mxCell id="5zz0w7R5cY40Yzn6jE3v-47" value="" style="endArrow=none;html=1;rounded=0;exitX=1;exitY=1;exitDx=0;exitDy=0;entryX=0;entryY=0;entryDx=0;entryDy=0;" parent="1" edge="1" target="5zz0w7R5cY40Yzn6jE3v-37" source="5zz0w7R5cY40Yzn6jE3v-1">
          <mxGeometry width="50" height="50" relative="1" as="geometry">
            <mxPoint x="1075" y="612" as="sourcePoint" />
            <mxPoint x="1196" y="691" as="targetPoint" />
          </mxGeometry>
        </mxCell>
        <mxCell id="M2MgSJsTMpzpS0lrlpUw-1" value="" style="ellipse;whiteSpace=wrap;html=1;aspect=fixed;" vertex="1" parent="1">
          <mxGeometry x="608" y="857.5" width="43" height="43" as="geometry" />
        </mxCell>
        <mxCell id="M2MgSJsTMpzpS0lrlpUw-2" value="" style="ellipse;whiteSpace=wrap;html=1;aspect=fixed;" vertex="1" parent="1">
          <mxGeometry x="749" y="857" width="43" height="43" as="geometry" />
        </mxCell>
        <mxCell id="M2MgSJsTMpzpS0lrlpUw-3" value="" style="ellipse;whiteSpace=wrap;html=1;aspect=fixed;" vertex="1" parent="1">
          <mxGeometry x="468" y="859.5" width="43" height="43" as="geometry" />
        </mxCell>
        <mxCell id="M2MgSJsTMpzpS0lrlpUw-4" value="G" style="text;html=1;align=center;verticalAlign=middle;resizable=0;points=[];autosize=1;strokeColor=none;fillColor=none;" vertex="1" parent="1">
          <mxGeometry x="476.5" y="868" width="27" height="26" as="geometry" />
        </mxCell>
        <mxCell id="M2MgSJsTMpzpS0lrlpUw-5" value="K" style="text;html=1;align=center;verticalAlign=middle;resizable=0;points=[];autosize=1;strokeColor=none;fillColor=none;" vertex="1" parent="1">
          <mxGeometry x="617" y="866" width="26" height="26" as="geometry" />
        </mxCell>
        <mxCell id="M2MgSJsTMpzpS0lrlpUw-6" value="I" style="text;html=1;align=center;verticalAlign=middle;resizable=0;points=[];autosize=1;strokeColor=none;fillColor=none;" vertex="1" parent="1">
          <mxGeometry x="761" y="868" width="21" height="26" as="geometry" />
        </mxCell>
        <mxCell id="M2MgSJsTMpzpS0lrlpUw-7" value="&lt;u&gt;&lt;b&gt;821&lt;/b&gt;&lt;/u&gt;" style="text;html=1;align=center;verticalAlign=middle;resizable=0;points=[];autosize=1;strokeColor=none;fillColor=none;" vertex="1" parent="1">
          <mxGeometry x="500" y="888.5" width="39" height="26" as="geometry" />
        </mxCell>
        <mxCell id="M2MgSJsTMpzpS0lrlpUw-8" value="1108" style="text;html=1;align=center;verticalAlign=middle;resizable=0;points=[];autosize=1;strokeColor=none;fillColor=none;" vertex="1" parent="1">
          <mxGeometry x="635" y="888.5" width="45" height="26" as="geometry" />
        </mxCell>
        <mxCell id="M2MgSJsTMpzpS0lrlpUw-9" value="&lt;div&gt;1438&lt;/div&gt;" style="text;html=1;align=center;verticalAlign=middle;resizable=0;points=[];autosize=1;strokeColor=none;fillColor=none;" vertex="1" parent="1">
          <mxGeometry x="782" y="886" width="46" height="26" as="geometry" />
        </mxCell>
        <mxCell id="M2MgSJsTMpzpS0lrlpUw-10" value="" style="endArrow=none;html=1;rounded=0;entryX=0.698;entryY=0.058;entryDx=0;entryDy=0;exitX=0;exitY=1;exitDx=0;exitDy=0;entryPerimeter=0;" edge="1" parent="1" source="5zz0w7R5cY40Yzn6jE3v-25" target="M2MgSJsTMpzpS0lrlpUw-3">
          <mxGeometry width="50" height="50" relative="1" as="geometry">
            <mxPoint x="507" y="820" as="sourcePoint" />
            <mxPoint x="414" y="894" as="targetPoint" />
          </mxGeometry>
        </mxCell>
        <mxCell id="M2MgSJsTMpzpS0lrlpUw-11" value="" style="endArrow=none;html=1;rounded=0;exitX=0.5;exitY=1;exitDx=0;exitDy=0;entryX=0.372;entryY=-0.081;entryDx=0;entryDy=0;entryPerimeter=0;" edge="1" parent="1" source="5zz0w7R5cY40Yzn6jE3v-25" target="M2MgSJsTMpzpS0lrlpUw-1">
          <mxGeometry width="50" height="50" relative="1" as="geometry">
            <mxPoint x="654" y="832" as="sourcePoint" />
            <mxPoint x="620" y="852" as="targetPoint" />
          </mxGeometry>
        </mxCell>
        <mxCell id="M2MgSJsTMpzpS0lrlpUw-12" value="" style="endArrow=none;html=1;rounded=0;entryX=1;entryY=1;entryDx=0;entryDy=0;exitX=0;exitY=0;exitDx=0;exitDy=0;" edge="1" parent="1" source="M2MgSJsTMpzpS0lrlpUw-2" target="5zz0w7R5cY40Yzn6jE3v-25">
          <mxGeometry width="50" height="50" relative="1" as="geometry">
            <mxPoint x="745" y="787" as="sourcePoint" />
            <mxPoint x="668" y="835" as="targetPoint" />
          </mxGeometry>
        </mxCell>
        <mxCell id="M2MgSJsTMpzpS0lrlpUw-13" value="" style="ellipse;whiteSpace=wrap;html=1;aspect=fixed;" vertex="1" parent="1">
          <mxGeometry x="343" y="862" width="43" height="43" as="geometry" />
        </mxCell>
        <mxCell id="M2MgSJsTMpzpS0lrlpUw-14" value="B" style="text;html=1;align=center;verticalAlign=middle;resizable=0;points=[];autosize=1;strokeColor=none;fillColor=none;" vertex="1" parent="1">
          <mxGeometry x="352.5" y="870.5" width="26" height="26" as="geometry" />
        </mxCell>
        <mxCell id="M2MgSJsTMpzpS0lrlpUw-15" value="1237" style="text;html=1;align=center;verticalAlign=middle;resizable=0;points=[];autosize=1;strokeColor=none;fillColor=none;" vertex="1" parent="1">
          <mxGeometry x="378.5" y="892" width="46" height="26" as="geometry" />
        </mxCell>
        <mxCell id="M2MgSJsTMpzpS0lrlpUw-16" value="" style="endArrow=none;html=1;rounded=0;exitX=0.023;exitY=0.686;exitDx=0;exitDy=0;entryX=1;entryY=0;entryDx=0;entryDy=0;exitPerimeter=0;" edge="1" parent="1" source="5zz0w7R5cY40Yzn6jE3v-25" target="M2MgSJsTMpzpS0lrlpUw-13">
          <mxGeometry width="50" height="50" relative="1" as="geometry">
            <mxPoint x="455" y="805" as="sourcePoint" />
            <mxPoint x="380" y="882" as="targetPoint" />
          </mxGeometry>
        </mxCell>
      </root>
    </mxGraphModel>
  </diagram>
</mxfile>
